<svg width="27" height="27" viewBox="0.183319091796875 0.174560546875 26.63336181640625 26.65087890625" fill="none" xmlns="http://www.w3.org/2000/svg">
<path d="M25.5977 9.50726L17.4253 1.33492L17.9994 0.760832C18.5172 0.243025 19.1588 -0.010475 19.9243 0.000331372C20.6897 0.0120383 21.3314 0.276795 21.8492 0.794602L26.2055 5.15093C26.7233 5.66874 26.9822 6.30451 26.9822 7.05826C26.9822 7.81291 26.7233 8.44913 26.2055 8.96694L25.5977 9.50726ZM8.94905 26.2234C8.43124 26.7412 7.79546 27.0001 7.04172 27.0001C6.28707 27.0001 5.65084 26.7412 5.13304 26.2234L0.77671 21.8671C0.258903 21.3493 0 20.713 0 19.9584C0 19.2047 0.258903 18.5689 0.77671 18.0511L1.31703 17.5107L9.48937 25.6831L8.94905 26.2234ZM13.8457 25.2778C13.5755 25.548 13.2603 25.6831 12.9001 25.6831C12.5399 25.6831 12.2247 25.548 11.9546 25.2778L1.72227 15.0455C1.45211 14.7754 1.31703 14.4602 1.31703 14.1C1.31703 13.7398 1.45211 13.4246 1.72227 13.1544L3.64716 11.1958C3.91732 10.9256 4.23836 10.7905 4.61028 10.7905C4.9813 10.7905 5.30189 10.9256 5.57205 11.1958L7.69956 13.3233L13.3054 7.71745L11.1779 5.58994C10.9077 5.31978 10.7726 5.00459 10.7726 4.64438C10.7726 4.28417 10.9077 3.96898 11.1779 3.69882L13.1028 1.74016C13.3729 1.47 13.694 1.33492 14.0659 1.33492C14.4369 1.33492 14.7575 1.47 15.0276 1.74016L25.26 11.9725C25.5301 12.2426 25.6652 12.5632 25.6652 12.9342C25.6652 13.3062 25.5301 13.6272 25.26 13.8974L23.3013 15.8222C23.0311 16.0924 22.7159 16.2275 22.3557 16.2275C21.9955 16.2275 21.6803 16.0924 21.4102 15.8222L19.2827 13.6947L13.6768 19.3006L15.8044 21.4281C16.0745 21.6982 16.2096 22.0188 16.2096 22.3898C16.2096 22.7618 16.0745 23.0828 15.8044 23.353L13.8457 25.2778Z" fill="#1C1B1F"/>
</svg>
