<svg width="17" height="17" viewBox="0 0 17 17" fill="none" xmlns="http://www.w3.org/2000/svg">
<path d="M6.17413 17L5.83582 14.28C5.65257 14.2092 5.48003 14.1242 5.31821 14.025C5.15582 13.9258 4.9971 13.8196 4.84204 13.7063L2.32587 14.7688L0 10.7313L2.17786 9.07375C2.16376 8.97458 2.15672 8.87882 2.15672 8.78645V8.2127C2.15672 8.1209 2.16376 8.02542 2.17786 7.92625L0 6.26875L2.32587 2.23125L4.84204 3.29375C4.9971 3.18042 5.1592 3.07417 5.32836 2.975C5.49751 2.87583 5.66667 2.79083 5.83582 2.72L6.17413 0H10.8259L11.1642 2.72C11.3474 2.79083 11.5202 2.87583 11.6826 2.975C11.8445 3.07417 12.0029 3.18042 12.158 3.29375L14.6741 2.23125L17 6.26875L14.8221 7.92625C14.8362 8.02542 14.8433 8.1209 14.8433 8.2127V8.78645C14.8433 8.87882 14.8292 8.97458 14.801 9.07375L16.9789 10.7313L14.653 14.7688L12.158 13.7063C12.0029 13.8196 11.8408 13.9258 11.6716 14.025C11.5025 14.1242 11.3333 14.2092 11.1642 14.28L10.8259 17H6.17413ZM8.54229 11.475C9.35987 11.475 10.0576 11.1846 10.6356 10.6038C11.2135 10.0229 11.5025 9.32167 11.5025 8.5C11.5025 7.67833 11.2135 6.97708 10.6356 6.39625C10.0576 5.81542 9.35987 5.525 8.54229 5.525C7.71061 5.525 7.00919 5.81542 6.43801 6.39625C5.8674 6.97708 5.58209 7.67833 5.58209 8.5C5.58209 9.32167 5.8674 10.0229 6.43801 10.6038C7.00919 11.1846 7.71061 11.475 8.54229 11.475Z" fill="#ACACAC"/>
</svg>
